<svg width="20" height="20" viewBox="0 0 20 20" fill="none" xmlns="http://www.w3.org/2000/svg">
<path d="M17 0H3C1.34315 0 0 1.34315 0 3V17C0 18.6569 1.34315 20 3 20H17C18.6569 20 20 18.6569 20 17V3C20 1.34315 18.6569 0 17 0Z" fill="#FF6632"/>
<path d="M11.925 9.06083L8.13311 14.7986C8.04997 14.9244 7.90972 15 7.75951 15H4.4486C4.20084 15 4 14.798 4 14.5489V11.152C4 11.0627 4.02635 10.9754 4.0757 10.9012L7.86677 5.20035C7.95002 5.07516 8.08991 5 8.23966 5H11.5514C11.7992 5 12 5.20198 12 5.45113V8.81113C12 8.9 11.9739 8.98684 11.925 9.06083Z" fill="#071E24"/>
<path d="M12 14.5472V11.4528C12 11.2027 12.2027 11 12.4528 11H15.5472C15.7973 11 16 11.2027 16 11.4528V14.5472C16 14.7973 15.7973 15 15.5472 15H12.4528C12.2027 15 12 14.7973 12 14.5472Z" fill="#071E24"/>
</svg>
