<svg width="114" height="20" viewBox="0 0 114 20" fill="none" xmlns="http://www.w3.org/2000/svg">
<path d="M35.8854 8.69229H37.749C38.5187 8.69229 39.1472 8.75824 39.6344 8.89008C40.1216 9.02198 40.5187 9.30038 40.8256 9.72527C41.1326 10.1502 41.286 10.6947 41.286 11.3589C41.286 12.3748 40.9717 13.2369 40.3432 13.945C39.7148 14.6483 38.6673 15 37.2008 15H33.861L33.4884 6.89011H33.3933L30.0536 15H28L32.2752 5H35.6004L35.8854 8.69229ZM36.0242 10.4505L36.2362 13.1685H37.3032C38.4189 13.1685 38.9767 12.641 38.9767 11.5861C38.9767 10.8291 38.5041 10.4505 37.5589 10.4505H36.0242ZM41.754 15L43.4203 5H45.6199L44.268 13.1026H46.9866L48.3386 5H50.5311L49.179 13.1026H51.8976L53.2496 5H55.4493L53.7758 15H41.754ZM59.586 6.76556L59.1402 9.41756C59.8028 8.60198 60.6529 8.19414 61.6907 8.19414C63.2302 8.19414 64 8.93893 64 10.4285C64 10.7069 63.9586 11.0977 63.8757 11.6008L63.3058 15H61.1133L61.7199 11.337C61.7589 11.1075 61.7784 10.9292 61.7784 10.8022C61.7784 10.1819 61.4129 9.87183 60.6822 9.87183C59.6298 9.87183 59.0159 10.3285 58.8405 11.2418L58.212 15H56.0123L57.3862 6.76556H55.815L56.1073 5H63.2984L63.0062 6.76556H59.586Z" fill="white"/>
<path d="M67 14.8168L68.5979 5.19732H71.4153C72.4058 5.19732 73.1744 5.35471 73.7211 5.66948C74.2724 5.97956 74.7327 6.47992 75.1018 7.17054C75.4708 7.85647 75.6554 8.66218 75.6554 9.58774C75.6554 10.4522 75.4989 11.2603 75.1858 12.012C74.8728 12.7589 74.4569 13.358 73.9384 13.809C73.4197 14.26 72.8964 14.5443 72.3685 14.6617C71.8452 14.7792 71.17 14.8379 70.343 14.8379L67 14.8168ZM69.3898 13.1043H70.5393C71.698 13.1043 72.4666 12.7167 72.845 11.9415C73.2235 11.1616 73.4127 10.3277 73.4127 9.43977C73.4127 7.74372 72.7422 6.8957 71.4013 6.8957H70.4201L69.3898 13.1043ZM84.4304 5.19732L84.1217 7.02255H79.6295L79.3 8.99579H83.057L82.7693 10.7364H79.0055L78.6343 12.9915H83.2109L82.9023 14.8168H76.0902L77.6881 5.19732H84.4304ZM91.6074 7.55815L89.6444 8.0162C89.4203 7.21752 88.8763 6.81818 88.0118 6.81818C87.6098 6.81818 87.29 6.91449 87.0516 7.10711C86.8177 7.29974 86.7011 7.5323 86.7011 7.80479C86.7011 8.07727 86.7968 8.284 86.9888 8.42494C87.1801 8.56586 87.547 8.70451 88.0887 8.84075C88.8696 9.03804 89.4838 9.24714 89.9321 9.46789C90.3804 9.68406 90.7242 9.9894 90.9625 10.3841C91.2054 10.774 91.3264 11.2509 91.3264 11.8147C91.3264 12.7214 90.9954 13.4801 90.3319 14.0909C89.6683 14.697 88.7246 15 87.4999 15C86.4538 15 85.5826 14.758 84.8862 14.2741C84.1942 13.7855 83.7646 13.0526 83.5965 12.0754L85.6431 11.7935C85.8531 12.7472 86.5001 13.2241 87.5844 13.2241C88.0753 13.2241 88.4511 13.1184 88.7127 12.907C88.9742 12.6956 89.1049 12.4277 89.1049 12.1036C89.1049 11.7935 89.0048 11.5704 88.8038 11.4341C88.6073 11.2932 88.147 11.124 87.423 10.9267C86.7647 10.7529 86.2386 10.5602 85.8463 10.3489C85.4585 10.1374 85.1477 9.8391 84.9138 9.45383C84.6852 9.06391 84.5708 8.61992 84.5708 8.12192C84.5708 7.30914 84.8764 6.59267 85.4892 5.97251C86.1011 5.35236 86.944 5.04229 88.0185 5.04229C89.8694 5.04229 91.0656 5.8809 91.6074 7.55815ZM95.7567 5.19732L94.1584 14.8168H91.9578L93.5561 5.19732H95.7567ZM104.321 9.6582L103.452 14.8872H102.555L102.302 13.5905C101.63 14.4926 100.752 14.9436 99.6676 14.9436C98.6678 14.9436 97.8197 14.5865 97.1233 13.8725C96.4322 13.1536 96.0862 12.1435 96.0862 10.8421C96.0862 9.18842 96.5278 7.80244 97.411 6.68429C98.2935 5.56143 99.4292 5 100.817 5C101.826 5 102.646 5.27719 103.277 5.83157C103.912 6.38595 104.314 7.1635 104.482 8.16419L102.422 8.50245C102.254 7.35611 101.714 6.78295 100.803 6.78295C100.242 6.78295 99.7775 7.00376 99.4083 7.44539C99.0392 7.88229 98.768 8.47192 98.5954 9.21421C98.4272 9.95654 98.3428 10.5744 98.3428 11.0677C98.3428 11.6502 98.481 12.1388 98.756 12.5335C99.037 12.9281 99.4898 13.1254 100.116 13.1254C101.041 13.1254 101.663 12.5499 101.98 11.3989H100.011L100.298 9.6582H104.321ZM114 5.19732L112.395 14.8168H110.608L107.818 7.85411C107.8 8.31925 107.648 9.41624 107.363 11.1452L106.753 14.8168H104.952L106.55 5.19732H108.975L111.281 11.0677C111.294 10.875 111.435 9.93308 111.702 8.24171L112.206 5.19732H114Z" fill="white"/>
<path d="M17 0H3C1.34315 0 0 1.34315 0 3V17C0 18.6569 1.34315 20 3 20H17C18.6569 20 20 18.6569 20 17V3C20 1.34315 18.6569 0 17 0Z" fill="#FF6632"/>
<path d="M11.925 9.06083L8.13311 14.7986C8.04997 14.9244 7.90972 15 7.75951 15H4.4486C4.20084 15 4 14.798 4 14.5489V11.152C4 11.0627 4.02635 10.9754 4.0757 10.9012L7.86677 5.20035C7.95002 5.07516 8.08991 5 8.23966 5H11.5514C11.7992 5 12 5.20198 12 5.45113V8.81113C12 8.9 11.9739 8.98684 11.925 9.06083Z" fill="#071E24"/>
<path d="M12 14.5472V11.4528C12 11.2027 12.2027 11 12.4528 11H15.5472C15.7973 11 16 11.2027 16 11.4528V14.5472C16 14.7973 15.7973 15 15.5472 15H12.4528C12.2027 15 12 14.7973 12 14.5472Z" fill="#071E24"/>
</svg>
