<svg width="29" height="29" viewBox="0 0 29 29" fill="none" xmlns="http://www.w3.org/2000/svg">
<rect width="29" height="29" rx="5" fill="#000058"/>
<path d="M9.38384 9H11.8438L15.2755 19.8231H13.2069L12.2515 16.7562H8.89847L7.98962 19.8231H6L9.38384 9ZM10.0264 12.5971L9.21187 15.2629H11.9223L11.0919 12.5971C10.8881 11.9388 10.7158 11.2 10.5592 10.5739H10.5279C10.3712 11.2 10.2144 11.9548 10.0264 12.5971ZM15.9808 16.0335C15.9808 13.8658 17.2656 11.8263 19.7098 11.8263C22.2007 11.8263 23 13.914 23 15.6322C23 16.0013 22.9687 16.2904 22.9373 16.467H17.8297C17.8766 17.8804 18.9576 18.4902 20.1797 18.4902C21.0727 18.4902 21.7152 18.3622 22.295 18.1372L22.577 19.5022C21.9189 19.7749 21.0104 20 19.9132 20C17.4379 20 15.9808 18.4261 15.9808 16.0335ZM19.6 13.1753C18.4092 13.1753 17.9077 14.2832 17.8297 15.086H21.1826C21.1982 14.3636 20.8847 13.1753 19.6 13.1753Z" fill="#9494F7"/>
</svg>
