<svg width="20" height="20" viewBox="0 0 20 20" fill="none" xmlns="http://www.w3.org/2000/svg">
<g clip-path="url(#clip0_230_1980)">
<path d="M19.796 7.98431C19.6626 7.34118 19.4665 6.71372 19.2075 6.10196C18.9565 5.50588 18.6426 4.94118 18.2817 4.40784C17.9208 3.87451 17.5128 3.38823 17.0655 2.93333C16.6104 2.47843 16.1083 2.06274 15.5904 1.71765C15.0569 1.35686 14.4763 1.04314 13.8956 0.792157C13.2915 0.533334 12.6638 0.337255 12.0126 0.203922C11.3535 0.0705887 10.6787 0 9.99608 0C9.31346 0 8.63868 0.0705887 7.9796 0.203922C7.33621 0.337255 6.70851 0.533334 6.10436 0.792157C5.50804 1.04314 4.94311 1.35686 4.40957 1.71765C3.87603 2.07843 3.38172 2.48627 2.93448 2.93333C2.48725 3.38039 2.0714 3.8902 1.71832 4.40784C1.35739 4.94118 1.04355 5.50588 0.792468 6.10196C0.533543 6.70588 0.337388 7.33333 0.204002 7.98431C0.0706164 8.64314 0 9.31765 0 10C0 10.6824 0.0706164 11.3569 0.204002 12.0157C0.337388 12.6588 0.533543 13.2863 0.792468 13.8902C1.04355 14.4863 1.35739 15.051 1.71832 15.5922C2.07925 16.1255 2.48725 16.6118 2.93448 17.0667C3.38956 17.5216 3.89172 17.9294 4.40957 18.2824C4.94311 18.6431 5.52374 18.9569 6.10436 19.2078C6.70851 19.4667 7.33621 19.6627 7.9796 19.7961C8.63868 19.9294 9.31346 20 9.99608 20C10.6787 20 11.3456 19.9294 12.0126 19.7961C12.6559 19.6627 13.2836 19.4667 13.8956 19.2078C14.492 18.9569 15.0569 18.6431 15.5904 18.2824C16.124 17.9216 16.6183 17.5137 17.0655 17.0667C17.5206 16.6118 17.9286 16.1098 18.2817 15.5922C18.6426 15.0588 18.9565 14.4863 19.2075 13.8902C19.4665 13.2863 19.6626 12.6588 19.796 12.0157C19.9294 11.3569 20 10.6824 20 10C20 9.31765 19.9294 8.64314 19.796 7.98431ZM9.99608 1.45882C12.1616 1.45882 14.131 2.26667 15.6375 3.59216C15.614 3.62353 14.4056 5.47451 11.173 6.68235C9.71361 4 8.10514 1.86667 7.97175 1.69412C8.62299 1.5451 9.29776 1.45882 9.99608 1.45882ZM7.93252 1.7098C7.93252 1.70196 7.94037 1.70196 7.93252 1.7098V1.7098ZM6.34759 2.27451C6.46528 2.42353 8.04237 4.57255 9.5253 7.2C5.42173 8.28235 1.85955 8.24314 1.63986 8.23529C2.18125 5.59216 3.96234 3.39608 6.34759 2.27451ZM3.6328 15.702C2.2754 14.1961 1.4437 12.1961 1.4437 10C1.4437 9.90588 1.45155 9.81961 1.45155 9.73333C1.60063 9.73333 5.82189 9.83529 10.2236 8.51765C10.4669 8.99608 10.7022 9.4902 10.9219 9.96863C10.8121 10 10.6944 10.0314 10.5845 10.0706C5.97097 11.5608 3.6328 15.702 3.6328 15.702ZM9.99608 18.5412C8.00314 18.5412 6.19066 17.8588 4.73911 16.7294C4.7705 16.6667 6.42605 13.1451 11.4476 11.3961C11.4633 11.3882 11.4869 11.3804 11.5026 11.3804C12.703 14.502 13.1973 17.1137 13.3229 17.8667C12.3029 18.298 11.173 18.5412 9.99608 18.5412ZM14.7666 17.0824C14.6803 16.5647 14.2252 14.0627 13.1032 10.9804C15.865 10.5412 18.2581 11.2941 18.4308 11.3569C18.0541 13.7333 16.6811 15.7882 14.7666 17.0824ZM12.5853 9.63137C12.5226 9.48235 12.4598 9.34118 12.397 9.19216C12.2166 8.76863 12.0282 8.36078 11.8242 7.95294C15.1981 6.58039 16.5712 4.59608 16.5869 4.57255C17.7795 6.03137 18.5092 7.8902 18.5328 9.91372C18.4151 9.8902 15.5198 9.26274 12.5853 9.63137Z" fill="white"/>
</g>
<defs>
<clipPath id="clip0_230_1980">
<rect width="20" height="20" fill="white"/>
</clipPath>
</defs>
</svg>
