<svg width="20" height="20" viewBox="0 0 20 20" fill="none" xmlns="http://www.w3.org/2000/svg">
<rect width="20" height="20" rx="10" fill="white"/>
<path d="M14.0749 13.4721V7.91656H8.14902V7.56934C8.14902 6.99489 8.64739 6.52767 9.26013 6.52767H10.3712V4.44434H9.26013C8.37641 4.44537 7.5292 4.77494 6.90432 5.36076C6.27943 5.94659 5.92789 6.74085 5.92679 7.56934V7.91656H4.44531V9.99989H5.92679V13.4721H4.44531V15.5554H9.6305V13.4721H8.14902V9.99989H11.8735V13.4721H10.3712V15.5554H15.5564V13.4721H14.0749Z" fill="black"/>
<path d="M13.3338 6.66656C13.9474 6.66656 14.4449 6.1691 14.4449 5.55545C14.4449 4.9418 13.9474 4.44434 13.3338 4.44434C12.7201 4.44434 12.2227 4.9418 12.2227 5.55545C12.2227 6.1691 12.7201 6.66656 13.3338 6.66656Z" fill="black"/>
</svg>
