<svg width="29" height="29" viewBox="0 0 29 29" fill="none" xmlns="http://www.w3.org/2000/svg">
<rect width="29" height="29" rx="5" fill="#310000"/>
<path d="M6.18339 21.5447H9.27191C9.35435 21.5447 9.42672 21.4897 9.44882 21.4102L10.3495 18.1631H13.8463L14.8235 21.414C14.8468 21.4916 14.9182 21.5447 14.9993 21.5447H18.205C18.2055 21.5447 18.2061 21.5447 18.2064 21.5447C18.3078 21.5447 18.3899 21.4625 18.3899 21.3612C18.3899 21.3341 18.3842 21.3084 18.3736 21.2853L14.295 8.13212C14.2712 8.05534 14.2001 8.00293 14.1196 8.00293H10.2102C10.1294 8.00293 10.0582 8.05563 10.0346 8.13278L6.00796 21.3075C5.99108 21.3632 6.00135 21.4236 6.03593 21.4703C6.07057 21.5171 6.12518 21.5447 6.18339 21.5447ZM13.3076 15.5676H10.8821L11.5988 13.0057C11.7289 12.544 11.852 11.9978 11.971 11.4695C11.9982 11.3481 12.025 11.2291 12.0516 11.1127C12.209 11.7455 12.3822 12.4293 12.5558 13.0076L13.3076 15.5676Z" fill="#F79500"/>
<path d="M19.746 11.6191C19.6446 11.6191 19.5625 11.7013 19.5625 11.8026V21.3612C19.5625 21.4625 19.6446 21.5447 19.746 21.5447H22.7172C22.8185 21.5447 22.9007 21.4625 22.9007 21.3612V11.8026C22.9007 11.7013 22.8185 11.6191 22.7172 11.6191H19.746Z" fill="#F79500"/>
<path d="M21.2126 10.8128C22.2477 10.8128 22.999 10.1109 22.999 9.13961C22.9764 8.14779 22.2499 7.45508 21.2321 7.45508C20.7126 7.45508 20.2513 7.63433 19.9331 7.95995C19.6346 8.2653 19.4755 8.68561 19.4848 9.14372C19.4753 9.5873 19.6347 10 19.9339 10.3064C20.2528 10.633 20.7069 10.8128 21.2126 10.8128Z" fill="#F79500"/>
</svg>
