<svg width="29" height="29" viewBox="0 0 29 29" fill="none" xmlns="http://www.w3.org/2000/svg">
<rect width="29" height="29" rx="5" fill="#001D34"/>
<path d="M14.8719 21.6399C14.9788 21.6399 15.0654 21.5533 15.0654 21.4464V18.8078C15.0654 18.7009 14.9788 18.6143 14.8719 18.6143H9.54088V7.5529C9.54088 7.44599 9.45426 7.35938 9.34736 7.35938H6.19352C6.08662 7.35938 6 7.44599 6 7.5529V21.4464C6 21.5533 6.08662 21.6399 6.19352 21.6399H14.8719Z" fill="#2FA3F7"/>
<path d="M16.6199 21.64H19.7532C19.8601 21.64 19.9467 21.5534 19.9467 21.4465V16.3344C19.9467 16.0943 19.9674 15.8588 20.0043 15.6736C20.1953 14.7757 20.9259 14.2398 21.9588 14.2398C22.2887 14.2398 22.5433 14.2779 22.7692 14.319C22.8259 14.3295 22.8838 14.314 22.9279 14.2772C22.972 14.2405 22.9974 14.1861 22.9974 14.1287V11.181C22.9974 11.0875 22.9305 11.0073 22.8385 10.9906C22.5948 10.9463 22.4347 10.9463 22.1442 10.9463C21.2298 10.9463 20.1284 11.4573 19.4992 12.5829L19.431 11.3559C19.4254 11.2533 19.3405 11.1731 19.2378 11.1731H16.5373C16.4844 11.1731 16.4338 11.1948 16.3972 11.2331C16.3607 11.2714 16.3415 11.323 16.344 11.3758C16.3874 12.2876 16.4262 13.2268 16.4262 14.6853V21.4466C16.4264 21.5534 16.5131 21.64 16.6199 21.64Z" fill="#2FA3F7"/>
</svg>
