<svg width="29" height="29" viewBox="0 0 29 29" fill="none" xmlns="http://www.w3.org/2000/svg">
<rect width="29" height="29" rx="5" fill="#001D34"/>
<path d="M9.152 20.7104V16.4325C9.38017 16.4547 9.64927 16.4663 9.94298 16.4663C11.733 16.4663 13.1802 15.9941 14.1288 15.1003C14.9059 14.3621 15.334 13.2623 15.334 12.0036C15.334 10.7811 14.8227 9.67569 13.9321 8.97143C13.0566 8.27115 11.77 7.93066 9.99882 7.93066C8.46454 7.93066 7.16807 8.01892 6.14508 8.19307C6.06128 8.20722 6 8.27986 6 8.36485V20.7104C6 20.8067 6.07801 20.8847 6.17429 20.8847H8.97771C9.07399 20.8847 9.152 20.8067 9.152 20.7104ZM9.152 13.9018V10.4904C9.32315 10.4576 9.6446 10.4142 10.1472 10.4142C11.4404 10.4142 12.1821 11.0205 12.1821 12.0778C12.1821 13.2473 11.3382 13.9456 9.92443 13.9456C9.58527 13.9456 9.34371 13.9322 9.152 13.9018Z" fill="#2FA3F7"/>
<path d="M20.413 14.9951C19.258 14.5909 19.0632 14.3984 19.0632 14.12C19.0632 13.6255 19.6285 13.5517 19.9656 13.5517C20.6814 13.5517 21.4281 13.8202 21.8501 14.0502C21.8973 14.0759 21.9535 14.0784 22.0029 14.057C22.0521 14.0355 22.0888 13.9926 22.1022 13.9406L22.6035 11.9914C22.624 11.9119 22.5861 11.8288 22.5127 11.7922C21.9923 11.532 21.0255 11.2539 19.8727 11.2539C17.5948 11.2539 16.0039 12.547 16.0039 14.3956C15.9885 15.2975 16.4443 16.5323 18.7036 17.2928C19.8011 17.6586 19.9212 17.8488 19.9212 18.1671C19.9212 18.3123 19.9212 18.754 18.8888 18.754C18.1154 18.754 17.0712 18.4105 16.5472 18.0923C16.4997 18.0635 16.4415 18.059 16.3902 18.0802C16.3391 18.1013 16.3009 18.1456 16.2875 18.1994L15.7864 20.2231C15.7673 20.3003 15.8028 20.3805 15.8727 20.4183C16.6394 20.8327 17.7388 21.0704 18.8888 21.0704C21.424 21.0704 22.9988 19.8797 22.9988 17.9606C22.9787 16.5181 22.1809 15.6035 20.413 14.9951Z" fill="#2FA3F7"/>
</svg>
