<svg width="20" height="20" viewBox="0 0 20 20" fill="none" xmlns="http://www.w3.org/2000/svg">
<g clip-path="url(#clip0_230_1988)">
<path d="M10 19.5959C15.3934 19.5959 19.7656 15.2997 19.7656 10.0001C19.7656 4.70048 15.3934 0.404297 10 0.404297C4.6066 0.404297 0.234375 4.70048 0.234375 10.0001C0.234375 15.2997 4.6066 19.5959 10 19.5959Z" fill="white"/>
<path d="M13.4952 7.09814C11.848 7.09814 10.9259 8.17162 10.6619 9.27678C10.3627 8.71365 10.141 7.96045 9.96852 7.26006H7.69141V10.0933C7.69141 11.121 7.22328 11.8813 6.3082 11.8813C5.39309 11.8813 4.86867 11.121 4.86867 10.0933L4.87922 7.26006H3.56641V10.0933C3.56641 10.9204 3.83391 11.6701 4.32313 12.2051C4.82641 12.7576 5.51273 13.0462 6.30816 13.0462C7.89195 13.0462 8.99711 11.832 8.99711 10.0933V8.18924C9.16254 8.81572 9.55672 10.0194 10.3099 11.0753L9.60602 15.0841H10.9399L11.4045 12.2438C11.5559 12.3705 11.7178 12.4831 11.8902 12.5852C12.3372 12.8668 12.8475 13.0252 13.3755 13.0428C13.3755 13.0428 13.4564 13.0463 13.4987 13.0463C15.1318 13.0463 16.4305 11.7828 16.4305 10.0758C16.4305 8.36873 15.1282 7.09818 13.4952 7.09818M13.4952 11.8778C12.485 11.8778 11.8163 11.0964 11.6298 10.7937C11.8691 8.87908 12.5695 8.27373 13.4952 8.27373C14.4102 8.27373 15.1212 9.0058 15.1212 10.0758C15.1212 11.1457 14.4102 11.8778 13.4952 11.8778Z" fill="black"/>
</g>
<defs>
<clipPath id="clip0_230_1988">
<rect width="20" height="20" fill="white"/>
</clipPath>
</defs>
</svg>
